<svg xmlns="http://www.w3.org/2000/svg" width="844" height="842" viewBox="0 0 844 842">
  <metadata><?xpacket begin="﻿" id="W5M0MpCehiHzreSzNTczkc9d"?>
<x:xmpmeta xmlns:x="adobe:ns:meta/" x:xmptk="Adobe XMP Core 5.6-c138 79.159824, 2016/09/14-01:09:01        ">
   <rdf:RDF xmlns:rdf="http://www.w3.org/1999/02/22-rdf-syntax-ns#">
      <rdf:Description rdf:about=""/>
   </rdf:RDF>
</x:xmpmeta>
                                                                                                    
                                                                                                    
                                                                                                    
                                                                                                    
                                                                                                    
                                                                                                    
                                                                                                    
                                                                                                    
                                                                                                    
                                                                                                    
                                                                                                    
                                                                                                    
                                                                                                    
                                                                                                    
                                                                                                    
                                                                                                    
                                                                                                    
                                                                                                    
                                                                                                    
                                                                                                    
                           
<?xpacket end="w"?></metadata>
<defs>
    <style>
      .cls-1 {
        fill: #fff;
        fill-rule: evenodd;
      }
    </style>
  </defs>
  <path class="cls-1" d="M0.517,92.821c-0.383-28.5-2-63.7,3.679-86.442,25.58-8.115,154.066-9.462,174.756,1.839,4.3,25.95-4.583,71.7,5.519,93.8l654.873,1.839c0.365,80.189,12.344,195.233-3.679,266.681-39.6,26.015-100.367,30.053-149,45.98L392.338,502.958c-41.56,13.771-88.072,17.432-119.57,40.462v7.357l5.519,7.357c44.71,6.835,103.839,3.679,154.52,3.678H703.218l136.126,1.839c0.254,20.293,6.523,73.268-5.519,82.764-13.841,10.914-130.032,3.681-158.2,3.678H351.868c-49.384,0-111.549,6.105-154.521-3.678l-1.839-5.518q-2.76-49.653-5.519-99.316Q140.327,317.225,90.654,92.821H0.517Zm220.744,562.79c126.406-3.724,135.766,160.14,31.272,183.918-69.769,15.876-127.517-48.767-110.372-114.03C153.215,683.425,183.347,672.018,221.261,655.611Zm465.4,0c127.74-3.909,137.695,160.1,33.111,183.918C647.441,856,587.092,785.666,611.242,718.143,624.307,681.612,651.539,671.033,686.663,655.611Z"/>
</svg>
