<svg xmlns="http://www.w3.org/2000/svg" width="3039" height="3032" viewBox="0 0 3039 3032">
  <metadata><?xpacket begin="﻿" id="W5M0MpCehiHzreSzNTczkc9d"?>
<x:xmpmeta xmlns:x="adobe:ns:meta/" x:xmptk="Adobe XMP Core 5.6-c138 79.159824, 2016/09/14-01:09:01        ">
   <rdf:RDF xmlns:rdf="http://www.w3.org/1999/02/22-rdf-syntax-ns#">
      <rdf:Description rdf:about=""/>
   </rdf:RDF>
</x:xmpmeta>
                                                                                                    
                                                                                                    
                                                                                                    
                                                                                                    
                                                                                                    
                                                                                                    
                                                                                                    
                                                                                                    
                                                                                                    
                                                                                                    
                                                                                                    
                                                                                                    
                                                                                                    
                                                                                                    
                                                                                                    
                                                                                                    
                                                                                                    
                                                                                                    
                                                                                                    
                                                                                                    
                           
<?xpacket end="w"?></metadata>
<defs>
    <style>
      .cls-1 {
        fill: #adacb2;
        fill-rule: evenodd;
      }
    </style>
  </defs>
  <path class="cls-1" d="M1.863,334.244C0.483,231.627-5.322,104.88,15.11,22.973,107.215-6.248,569.856-11.1,644.354,29.6c15.478,93.445-16.5,258.2,19.871,337.762l2358.005,6.623c1.32,288.756,44.45,703.019-13.24,960.309-142.59,93.68-361.39,108.21-536.52,165.57q-529.83,155.61-1059.78,311.27c-149.64,49.59-317.12,62.77-430.531,145.7v26.49l19.871,26.49c160.99,24.61,373.9,13.25,556.38,13.25h973.68q245.04,3.315,490.14,6.62c0.92,73.07,23.49,263.83-19.87,298.03-49.84,39.3-468.2,13.25-569.63,13.24H1266.97c-177.81,0-401.652,21.99-556.38-13.24q-3.31-9.945-6.623-19.87-9.934-178.8-19.871-357.63Q505.277,1142.31,326.42,334.244H1.863ZM796.7,2360.82c455.153-13.41,488.853,576.66,112.6,662.28-251.218,57.17-459.152-175.61-397.417-410.61C551.682,2460.98,660.178,2419.9,796.7,2360.82Zm1675.773,0c459.96-14.07,495.81,576.52,119.23,662.28-260.45,59.32-477.75-193.95-390.8-437.1C2247.95,2454.45,2346,2416.36,2472.47,2360.82Z"/>
</svg>
