<svg xmlns="http://www.w3.org/2000/svg" width="865" height="863" viewBox="0 0 865 863">
  <metadata><?xpacket begin="﻿" id="W5M0MpCehiHzreSzNTczkc9d"?>
<x:xmpmeta xmlns:x="adobe:ns:meta/" x:xmptk="Adobe XMP Core 5.6-c138 79.159824, 2016/09/14-01:09:01        ">
   <rdf:RDF xmlns:rdf="http://www.w3.org/1999/02/22-rdf-syntax-ns#">
      <rdf:Description rdf:about=""/>
   </rdf:RDF>
</x:xmpmeta>
                                                                                                    
                                                                                                    
                                                                                                    
                                                                                                    
                                                                                                    
                                                                                                    
                                                                                                    
                                                                                                    
                                                                                                    
                                                                                                    
                                                                                                    
                                                                                                    
                                                                                                    
                                                                                                    
                                                                                                    
                                                                                                    
                                                                                                    
                                                                                                    
                                                                                                    
                                                                                                    
                           
<?xpacket end="w"?></metadata>
<defs>
    <style>
      .cls-1 {
        fill: #fff;
        fill-rule: evenodd;
      }
    </style>
  </defs>
  <path class="cls-1" d="M617.085,162.574q0.847-80.537,1.7-161.09c15.159-.575,50.871-4.45,59.355,3.391h3.392q-0.848,78.842-1.7,157.7H617.085ZM184.638,3.179h64.443V162.574H184.638V3.179ZM138.849,98.138q0.849,48.323,1.7,96.654c23.636,0.385,148.129,3.629,154.325-5.087q0.847-45.779,1.695-91.567H571.3q0.849,48.323,1.7,96.654L727.317,193.1q0.847-47.475,1.695-94.959c61.085-.716,96.957,6.787,120.407,42.392,23.338,35.434,13.57,118.285,13.567,174.656q-0.847,239.069-1.7,478.185c-19.838,75.253-94.123,69.527-189.937,69.523H77.8C-17.29,841.449,1.484,721.956,1.484,606.845V282.968c0-53.593-5.262-114.454,16.959-145.829C42.263,103.505,79.455,97.516,138.849,98.138ZM769.713,769.631q-0.847-193.288-1.7-386.617H269.431c-27.636,0-161.193-6.8-172.978,3.391V769.631h673.26Z"/>
</svg>
