<svg xmlns="http://www.w3.org/2000/svg" width="180" height="180" viewBox="0 0 180 180">
  <metadata><?xpacket begin="﻿" id="W5M0MpCehiHzreSzNTczkc9d"?>
<x:xmpmeta xmlns:x="adobe:ns:meta/" x:xmptk="Adobe XMP Core 5.6-c138 79.159824, 2016/09/14-01:09:01        ">
   <rdf:RDF xmlns:rdf="http://www.w3.org/1999/02/22-rdf-syntax-ns#">
      <rdf:Description rdf:about=""/>
   </rdf:RDF>
</x:xmpmeta>
                                                                                                    
                                                                                                    
                                                                                                    
                                                                                                    
                                                                                                    
                                                                                                    
                                                                                                    
                                                                                                    
                                                                                                    
                                                                                                    
                                                                                                    
                                                                                                    
                                                                                                    
                                                                                                    
                                                                                                    
                                                                                                    
                                                                                                    
                                                                                                    
                                                                                                    
                                                                                                    
                           
<?xpacket end="w"?></metadata>
<defs>
    <style>
      .cls-1 {
	fill: #4242424;
        fill-rule: evenodd;
      }
    </style>
  </defs>
  <path class="cls-1" d="M117.542,89.264c20.585,20.289,49.385,44.491,62.257,66.036-4.952,9.116-15.9,28.508-28.338,22.677-5.634-1.284-13.679-11.791-18.868-16.979Q110.9,139.305,89.2,117.605c-20.048,20.264-42.3,47.525-64.239,62.353C16.1,176.879,7.543,168.436.432,159.208c3.976-18.342,43.06-50.878,61.412-68.959C41.906,70.526,15.091,48.62.529,27.045a33.362,33.362,0,0,0,.95-8.5C6.826,12.378,12.023,3.776,19.428,2.486,31.737-3.356,76.008,47.234,90.185,61.908,109.938,41.94,131.883,15.093,153.48.5c2.8,0.8,6.548,1.872,9.439,1.881,8.8,8.028,18.077,16.307,15.086,24.533-1.292,5.636-11.811,13.7-17.006,18.893Z"/>
</svg>
