<svg xmlns="http://www.w3.org/2000/svg" width="356" height="315" viewBox="0 0 356 315">
  <metadata><?xpacket begin="﻿" id="W5M0MpCehiHzreSzNTczkc9d"?>
<x:xmpmeta xmlns:x="adobe:ns:meta/" x:xmptk="Adobe XMP Core 5.6-c138 79.159824, 2016/09/14-01:09:01        ">
   <rdf:RDF xmlns:rdf="http://www.w3.org/1999/02/22-rdf-syntax-ns#">
      <rdf:Description rdf:about=""/>
   </rdf:RDF>
</x:xmpmeta>
                                                                                                    
                                                                                                    
                                                                                                    
                                                                                                    
                                                                                                    
                                                                                                    
                                                                                                    
                                                                                                    
                                                                                                    
                                                                                                    
                                                                                                    
                                                                                                    
                                                                                                    
                                                                                                    
                                                                                                    
                                                                                                    
                                                                                                    
                                                                                                    
                                                                                                    
                                                                                                    
                           
<?xpacket end="w"?></metadata>
<defs>
    <style>
      .cls-1 {
        fill: #5443c3;
        fill-rule: evenodd;
      }
    </style>
  </defs>
  <path class="cls-1" d="M142.219,0l51.826,2.414-2.411,1.207c-40.789,28.5-99.45,24.962-51.825,86.9-8.074,10.876-21.436,23.754-33.747,30.173C90.936,108.4,77.029,88.328,53.031,105c-3.509,18.067-7.366,21.622-18.079,31.379H28.926L0,102.586v-1.207L18.079,85.69l19.284-3.621C46.849,75.527,46.2,56.9,55.441,49.483,82.078,28.109,109.249,16.3,142.219,0ZM292.875,4.828c5.326,0.934,4.477.729,7.232,3.621-3.706,18.37-19.4,25.285-20.49,47.069,28,56.642,51.5-6.158,68.7-21.724,13.859,11.088,6.159,55.256-1.206,67.586-20.911,35.011-35.551,11.585-69.9,19.311-17.95,4.036-38.109,26.732-48.21,39.827l-4.821-3.62c-9.186-17.386-27.758-21.662-6.026-37.414,5.678-11.87,17.694-16.809,21.694-31.38,5.254-19.138-1.3-40.995,8.437-54.31C258.7,19.545,278.78,15.523,292.875,4.828Zm-141.014,105c17.5,7.214,33.14,35.086,44.594,49.482L304.928,284.828l-1.206,6.034c-4.187,8.3-15.525,16.545-24.1,20.517-19.084-3.624-37.271-35.812-48.209-49.482l-108.473-123.1C125.778,125.714,143.094,117.689,151.861,109.828ZM137.4,195.517c10.09,4.812,22.222,20.586,27.721,30.173L74.725,315l-7.231-1.207-22.9-21.724,1.205-3.621Z"/>
</svg>
