<svg xmlns="http://www.w3.org/2000/svg" width="857" height="1075" viewBox="0 0 857 1075">
  <metadata><?xpacket begin="﻿" id="W5M0MpCehiHzreSzNTczkc9d"?>
<x:xmpmeta xmlns:x="adobe:ns:meta/" x:xmptk="Adobe XMP Core 5.6-c138 79.159824, 2016/09/14-01:09:01        ">
   <rdf:RDF xmlns:rdf="http://www.w3.org/1999/02/22-rdf-syntax-ns#">
      <rdf:Description rdf:about=""/>
   </rdf:RDF>
</x:xmpmeta>
                                                                                                    
                                                                                                    
                                                                                                    
                                                                                                    
                                                                                                    
                                                                                                    
                                                                                                    
                                                                                                    
                                                                                                    
                                                                                                    
                                                                                                    
                                                                                                    
                                                                                                    
                                                                                                    
                                                                                                    
                                                                                                    
                                                                                                    
                                                                                                    
                                                                                                    
                                                                                                    
                           
<?xpacket end="w"?></metadata>
<defs>
    <style>
      .cls-1 {
        fill: #adacb2;
        fill-rule: evenodd;
      }
    </style>
  </defs>
  <path class="cls-1" d="M366.257,0L510.936,1.226c37.072,8.494,58.234,36.092,78.469,61.317l17.166,20.848L672.78,98.107c57.879,18.872,227.1,75.695,174.105,170.461-24.2,43.273-80.569,62.466-131.192,79.712-158.066,53.85-415.777,54.275-573.811,0-51.4-17.652-105.777-36.438-131.192-79.712C-44.023,175.41,126.41,117.1,184.8,98.107L252.23,82.165,307.4,19.621C324.562,6.338,342.647,9.2,366.257,0Zm-1.226,45.374-19.618,7.358L216.673,206.025,222.8,209.7l90.731-1.227,71.113-73.58h90.731l69.887,73.58,95.635-1.226v-3.679L539.136,83.391c-9.319-11.879-18.352-28.305-33.1-34.338C477.568,37.415,402.483,45.164,365.031,45.375ZM59.734,423.087c34.218,14.021,69.2,31.557,106.67,45.374,94.18,34.728,322.677,45.671,437.715,19.621,44.911-10.17,90.138-18.546,129.965-34.337l63.757-29.432q-23.293,206-46.591,412.049c-9.693,52.5,1.895,129.692-33.105,156.972-115.869,90.306-333.083,106.126-490.437,45.376-31.459-12.15-94.234-37.09-106.67-65Q90.389,698.428,59.734,423.087Z"/>
</svg>
