<svg xmlns="http://www.w3.org/2000/svg" width="417" height="415" viewBox="0 0 417 415">
  <metadata><?xpacket begin="﻿" id="W5M0MpCehiHzreSzNTczkc9d"?>
<x:xmpmeta xmlns:x="adobe:ns:meta/" x:xmptk="Adobe XMP Core 5.6-c138 79.159824, 2016/09/14-01:09:01        ">
   <rdf:RDF xmlns:rdf="http://www.w3.org/1999/02/22-rdf-syntax-ns#">
      <rdf:Description rdf:about=""/>
   </rdf:RDF>
</x:xmpmeta>
                                                                                                    
                                                                                                    
                                                                                                    
                                                                                                    
                                                                                                    
                                                                                                    
                                                                                                    
                                                                                                    
                                                                                                    
                                                                                                    
                                                                                                    
                                                                                                    
                                                                                                    
                                                                                                    
                                                                                                    
                                                                                                    
                                                                                                    
                                                                                                    
                                                                                                    
                                                                                                    
                           
<?xpacket end="w"?></metadata>
<defs>
    <style>
      .cls-1 {
        fill: #fff;
        fill-rule: evenodd;
      }
    </style>
  </defs>
  <path class="cls-1" d="M194.024,0.031c151.6-2.244,270.483,137.348,204.209,290.8-30.288,70.127-88.7,108.548-176.043,122.758-33.794,5.5-67.72-6.2-89.53-15.093C55.042,366.849-27.671,270.919,8.928,150.963,27.636,89.646,68.8,41.234,124.613,17.137,145.955,7.922,171.872,8.768,194.024.031Zm55.327,273.69H223.2v27.168H115.559V112.727H223.2v40.249h26.155c0.577-30.083,4.118-60.787-20.119-66.41L105.5,87.572c-8.34,3.276-15.216,12.416-17.1,22.137V267.684c0,24.589-2.235,47.175,13.078,56.348,11.533,6.909,124.786,7.315,135.8,0C250.561,315.214,249.786,296.426,249.351,273.721Zm27.161-80.5L155.8,194.231v39.242H276.512q0.5,15.594,1.006,31.192l37.22-37.229,15.09-14.087-52.31-51.317h-1.006v31.192Z"/>
</svg>
