<svg xmlns="http://www.w3.org/2000/svg" width="963" height="963" viewBox="0 0 963 963">
  <metadata><?xpacket begin="﻿" id="W5M0MpCehiHzreSzNTczkc9d"?>
<x:xmpmeta xmlns:x="adobe:ns:meta/" x:xmptk="Adobe XMP Core 5.6-c138 79.159824, 2016/09/14-01:09:01        ">
   <rdf:RDF xmlns:rdf="http://www.w3.org/1999/02/22-rdf-syntax-ns#">
      <rdf:Description rdf:about=""/>
   </rdf:RDF>
</x:xmpmeta>
                                                                                                    
                                                                                                    
                                                                                                    
                                                                                                    
                                                                                                    
                                                                                                    
                                                                                                    
                                                                                                    
                                                                                                    
                                                                                                    
                                                                                                    
                                                                                                    
                                                                                                    
                                                                                                    
                                                                                                    
                                                                                                    
                                                                                                    
                                                                                                    
                                                                                                    
                                                                                                    
                           
<?xpacket end="w"?></metadata>
<defs>
    <style>
      .cls-1 {
        fill: #fff;
        fill-rule: evenodd;
      }
    </style>
  </defs>
  <path class="cls-1" d="M320.324,0l12.164,2.027c25.442,63.86,134.683,117.533,220.984,75C591.072,58.493,606.7,27.324,634.566,0c28.812,3.185,76.015,20.877,93.259,38.512-11.917,111.5,35.828,176.442,117.588,204.724,24.086,8.332,69.005-.153,85.149,8.108,7.325,30.261,26.283,53.1,32.438,87.16-111.18,69.049-124.664,215.815,0,281.748-3.726,37.759-25.591,63.923-36.493,95.268C823.733,696.58,744.889,763.694,725.8,841.192c-6.531,26.511,1.7,64.778,2.027,83.106L632.539,962.81c-30.456-73.979-149.424-124.651-239.23-70.944C374.491,903.12,336.1,960.2,330.461,962.81c-7.126,3.3-87.589-35.846-97.314-40.539,33.835-98.521-40.925-179.946-109.478-198.643-30.953-8.443-62.612,5.421-89.2,0-6.572-29.622-37-62.513-32.438-93.241,57.865-24.863,121.1-124.571,79.067-208.778C61.768,382.889,26.5,366.817,0,336.477c6.6-26.995,21.488-74.684,40.547-91.214C137.794,275.505,220.918,187.3,237.2,119.591c6.376-26.508.1-58.315-2.027-83.106ZM462.24,267.56L407.5,279.722c-57.725,21.351-107.423,74.937-127.724,133.78C231.35,553.867,355.73,713.413,490.623,693.223c92.938-13.91,155.219-53.619,186.518-127.7C744.192,406.825,617.2,265.548,462.24,267.56Z"/>
</svg>
